<svg width="21" height="20" viewBox="0 0 21 20" fill="none" xmlns="http://www.w3.org/2000/svg">
<mask id="path-1-inside-1_274_49" fill="white">
<path fill-rule="evenodd" clip-rule="evenodd" d="M10.8677 1.04169C9.82483 1.04169 8.82468 1.45872 8.08726 2.20106C7.34985 2.94339 6.93557 3.9502 6.93557 5.00002C6.93557 6.04984 7.34985 7.05665 8.08726 7.79898C8.82468 8.54132 9.82483 8.95835 10.8677 8.95835C11.9106 8.95835 12.9107 8.54132 13.6481 7.79898C14.3855 7.05665 14.7998 6.04984 14.7998 5.00002C14.7998 3.9502 14.3855 2.94339 13.6481 2.20106C12.9107 1.45872 11.9106 1.04169 10.8677 1.04169ZM8.17729 5.00002C8.17729 4.28173 8.46075 3.59285 8.96529 3.08494C9.46984 2.57703 10.1542 2.29169 10.8677 2.29169C11.5812 2.29169 12.2655 2.57703 12.7701 3.08494C13.2746 3.59285 13.5581 4.28173 13.5581 5.00002C13.5581 5.71832 13.2746 6.40719 12.7701 6.9151C12.2655 7.42301 11.5812 7.70835 10.8677 7.70835C10.1542 7.70835 9.46984 7.42301 8.96529 6.9151C8.46075 6.40719 8.17729 5.71832 8.17729 5.00002ZM10.8677 10.2084C8.95296 10.2084 7.18806 10.6467 5.88094 11.3867C4.59286 12.1167 3.62431 13.2217 3.62431 14.5834V14.6684C3.62349 15.6367 3.62266 16.8517 4.68143 17.72C5.20213 18.1467 5.93143 18.4509 6.91653 18.6509C7.90329 18.8525 9.19054 18.9584 10.8677 18.9584C12.5448 18.9584 13.8313 18.8525 14.8197 18.6509C15.8048 18.4509 16.5333 18.1467 17.0548 17.72C18.1136 16.8517 18.1119 15.6367 18.1111 14.6684V14.5834C18.1111 13.2217 17.1425 12.1167 15.8553 11.3867C14.5473 10.6467 12.7833 10.2084 10.8677 10.2084ZM4.86604 14.5834C4.86604 13.8742 5.38094 13.1042 6.48938 12.4767C7.57878 11.86 9.12514 11.4584 10.8685 11.4584C12.6102 11.4584 14.1566 11.86 15.246 12.4767C16.3553 13.1042 16.8693 13.8742 16.8693 14.5834C16.8693 15.6734 16.8362 16.2867 16.27 16.75C15.9637 17.0017 15.4505 17.2475 14.573 17.4259C13.698 17.6042 12.5018 17.7084 10.8677 17.7084C9.23359 17.7084 8.03657 17.6042 7.16239 17.4259C6.28491 17.2475 5.77167 17.0017 5.46537 16.7509C4.89915 16.2867 4.86604 15.6734 4.86604 14.5834Z"/>
</mask>
<path d="M10.8677 1.04169V-0.458313V1.04169ZM6.93557 5.00002H5.43557H6.93557ZM10.8677 8.95835V7.45835V8.95835ZM14.7998 5.00002H16.2998H14.7998ZM10.8677 2.29169V0.791687V2.29169ZM13.5581 5.00002H15.0581H13.5581ZM5.88094 11.3867L5.14195 10.0814L5.14135 10.0817L5.88094 11.3867ZM3.62431 14.6684L5.12431 14.6696V14.6684H3.62431ZM4.68143 17.72L3.73022 18.8798L3.73072 18.8803L4.68143 17.72ZM6.91653 18.6509L7.21689 17.1812L7.21498 17.1808L6.91653 18.6509ZM14.8197 18.6509L14.5212 17.1808L14.5198 17.1811L14.8197 18.6509ZM17.0548 17.72L18.0046 18.881L18.006 18.8798L17.0548 17.72ZM18.1111 14.6684H16.6111L16.6111 14.6696L18.1111 14.6684ZM15.8553 11.3867L16.5952 10.0819L16.5939 10.0812L15.8553 11.3867ZM6.48938 12.4767L5.75046 11.1713L5.75041 11.1713L6.48938 12.4767ZM15.246 12.4767L14.5071 13.7821L14.5075 13.7823L15.246 12.4767ZM16.27 16.75L15.3201 15.5891L15.3177 15.5911L16.27 16.75ZM14.573 17.4259L14.2742 15.9559L14.2734 15.9561L14.573 17.4259ZM7.16239 17.4259L7.46222 15.9561L7.46114 15.9559L7.16239 17.4259ZM5.46537 16.7509L4.51442 17.9109L4.51499 17.9114L5.46537 16.7509ZM10.8677 -0.458313C9.42378 -0.458313 8.04103 0.119198 7.02309 1.14393L9.15144 3.25819C9.60833 2.79825 10.2259 2.54169 10.8677 2.54169V-0.458313ZM7.02309 1.14393C6.00548 2.16832 5.43557 3.55558 5.43557 5.00002H8.43557C8.43557 4.34483 8.69422 3.71846 9.15144 3.25819L7.02309 1.14393ZM5.43557 5.00002C5.43557 6.44446 6.00548 7.83172 7.02309 8.85612L9.15144 6.74185C8.69422 6.28158 8.43557 5.65522 8.43557 5.00002H5.43557ZM7.02309 8.85612C8.04103 9.88084 9.42378 10.4584 10.8677 10.4584V7.45835C10.2259 7.45835 9.60833 7.20179 9.15144 6.74185L7.02309 8.85612ZM10.8677 10.4584C12.3116 10.4584 13.6944 9.88084 14.7123 8.85612L12.5839 6.74185C12.1271 7.20179 11.5095 7.45835 10.8677 7.45835V10.4584ZM14.7123 8.85612C15.7299 7.83172 16.2998 6.44446 16.2998 5.00002H13.2998C13.2998 5.65521 13.0412 6.28158 12.5839 6.74185L14.7123 8.85612ZM16.2998 5.00002C16.2998 3.55558 15.7299 2.16832 14.7123 1.14393L12.5839 3.25819C13.0412 3.71846 13.2998 4.34483 13.2998 5.00002H16.2998ZM14.7123 1.14393C13.6944 0.119198 12.3116 -0.458313 10.8677 -0.458313V2.54169C11.5095 2.54169 12.1271 2.79825 12.5839 3.25819L14.7123 1.14393ZM9.67729 5.00002C9.67729 4.67635 9.80512 4.36792 10.0295 4.14207L7.90112 2.02781C7.11638 2.81778 6.67729 3.8871 6.67729 5.00002H9.67729ZM10.0295 4.14207C10.2535 3.91655 10.5552 3.79169 10.8677 3.79169V0.791687C9.7531 0.791687 8.68619 1.2375 7.90112 2.02781L10.0295 4.14207ZM10.8677 3.79169C11.1802 3.79169 11.4819 3.91656 11.7059 4.14207L13.8343 2.02781C13.0492 1.2375 11.9823 0.791687 10.8677 0.791687V3.79169ZM11.7059 4.14207C11.9303 4.36792 12.0581 4.67635 12.0581 5.00002H15.0581C15.0581 3.88711 14.619 2.81778 13.8343 2.02781L11.7059 4.14207ZM12.0581 5.00002C12.0581 5.32369 11.9303 5.63212 11.7059 5.85797L13.8343 7.97223C14.619 7.18226 15.0581 6.11294 15.0581 5.00002H12.0581ZM11.7059 5.85797C11.4819 6.08349 11.1802 6.20835 10.8677 6.20835V9.20835C11.9823 9.20835 13.0492 8.76254 13.8343 7.97223L11.7059 5.85797ZM10.8677 6.20835C10.5552 6.20835 10.2535 6.08349 10.0295 5.85797L7.90112 7.97223C8.68619 8.76254 9.7531 9.20835 10.8677 9.20835V6.20835ZM10.0295 5.85797C9.80512 5.63212 9.67729 5.32369 9.67729 5.00002H6.67729C6.67729 6.11294 7.11638 7.18226 7.90112 7.97223L10.0295 5.85797ZM10.8677 8.70835C8.74258 8.70835 6.7133 9.19176 5.14195 10.0814L6.61993 12.692C7.66281 12.1016 9.16333 11.7084 10.8677 11.7084V8.70835ZM5.14135 10.0817C3.639 10.9331 2.12431 12.4408 2.12431 14.5834H5.12431C5.12431 14.0026 5.54672 13.3002 6.62052 12.6917L5.14135 10.0817ZM2.12431 14.5834V14.6684H5.12431V14.5834H2.12431ZM2.12431 14.6671C2.12355 15.556 2.05688 17.5075 3.73022 18.8798L5.63264 16.5602C5.18844 16.1959 5.12342 15.7174 5.12431 14.6696L2.12431 14.6671ZM3.73072 18.8803C4.51026 19.519 5.5014 19.8941 6.61808 20.1209L7.21498 17.1808C6.36146 17.0076 5.89399 16.7743 5.63215 16.5598L3.73072 18.8803ZM6.61618 20.1205C7.74048 20.3503 9.13883 20.4584 10.8677 20.4584V17.4584C9.24225 17.4584 8.0661 17.3548 7.21688 17.1812L6.61618 20.1205ZM10.8677 20.4584C12.5968 20.4584 13.994 20.3502 15.1195 20.1206L14.5198 17.1811C13.6685 17.3548 12.4929 17.4584 10.8677 17.4584V20.4584ZM15.1181 20.1209C16.2356 19.894 17.225 19.5188 18.0046 18.881L16.105 16.559C15.8415 16.7746 15.374 17.0077 14.5212 17.1808L15.1181 20.1209ZM18.006 18.8798C19.6797 17.5072 19.6118 15.5548 19.6111 14.6671L16.6111 14.6696C16.612 15.7185 16.5474 16.1962 16.1036 16.5602L18.006 18.8798ZM19.6111 14.6684V14.5834H16.6111V14.6684H19.6111ZM19.6111 14.5834C19.6111 12.4409 18.0966 10.9333 16.5952 10.0819L15.1153 12.6915C16.1885 13.3001 16.6111 14.0025 16.6111 14.5834H19.6111ZM16.5939 10.0812C15.022 9.19183 12.9938 8.70835 10.8677 8.70835V11.7084C12.5727 11.7084 14.0726 12.1015 15.1166 12.6922L16.5939 10.0812ZM6.36604 14.5834C6.36604 14.6473 6.3449 14.2822 7.22835 13.782L5.75041 11.1713C4.41697 11.9262 3.36604 13.1011 3.36604 14.5834H6.36604ZM7.2283 13.7821C8.05383 13.3148 9.33597 12.9584 10.8685 12.9584V9.95835C8.91432 9.95835 7.10374 10.4053 5.75046 11.1713L7.2283 13.7821ZM10.8685 12.9584C12.3993 12.9584 13.6814 13.3147 14.5071 13.7821L15.9849 11.1713C14.6318 10.4053 12.8212 9.95835 10.8685 9.95835V12.9584ZM14.5075 13.7823C15.3907 14.2819 15.3693 14.6469 15.3693 14.5834H18.3693C18.3693 13.1015 17.3198 11.9264 15.9846 11.1711L14.5075 13.7823ZM15.3693 14.5834C15.3693 14.8546 15.3671 15.0612 15.3576 15.2345C15.3481 15.4071 15.3331 15.5085 15.3194 15.5689C15.3071 15.6227 15.3001 15.6249 15.3119 15.6049C15.3256 15.5818 15.3366 15.5756 15.3201 15.5891L17.2199 17.9109C18.4199 16.929 18.3693 15.5314 18.3693 14.5834H15.3693ZM15.3177 15.5911C15.2711 15.6294 15.0207 15.8042 14.2742 15.9559L14.8717 18.8958C15.8803 18.6908 16.6564 18.374 17.2223 17.909L15.3177 15.5911ZM14.2734 15.9561C13.5353 16.1065 12.4497 16.2084 10.8677 16.2084V19.2084C12.5539 19.2084 13.8607 19.1019 14.8725 18.8956L14.2734 15.9561ZM10.8677 16.2084C9.28548 16.2084 8.19925 16.1065 7.46222 15.9561L6.86257 18.8956C7.87388 19.1019 9.1817 19.2084 10.8677 19.2084V16.2084ZM7.46114 15.9559C6.7151 15.8043 6.4634 15.6294 6.41576 15.5903L4.51499 17.9114C5.07993 18.374 5.85472 18.6908 6.86365 18.8958L7.46114 15.9559ZM6.41632 15.5908C6.39947 15.577 6.41029 15.583 6.42376 15.6057C6.43541 15.6254 6.42828 15.623 6.41602 15.5691C6.40224 15.5086 6.38727 15.4071 6.37781 15.2345C6.36831 15.0612 6.36604 14.8546 6.36604 14.5834H3.36604C3.36604 15.5322 3.31573 16.9283 4.51442 17.9109L6.41632 15.5908Z" fill="#020817" mask="url(#path-1-inside-1_274_49)"/>
</svg>
