<svg width="50" height="50" viewBox="0 0 50 50" fill="none" xmlns="http://www.w3.org/2000/svg">
<rect width="50" height="50" rx="25" fill="white"/>
<path d="M25 13C26.5913 13 28.1174 13.6321 29.2426 14.7574C30.3679 15.8826 31 17.4087 31 19C31 20.5913 30.3679 22.1174 29.2426 23.2426C28.1174 24.3679 26.5913 25 25 25C23.4087 25 21.8826 24.3679 20.7574 23.2426C19.6321 22.1174 19 20.5913 19 19C19 17.4087 19.6321 15.8826 20.7574 14.7574C21.8826 13.6321 23.4087 13 25 13ZM25 16C24.2044 16 23.4413 16.3161 22.8787 16.8787C22.3161 17.4413 22 18.2044 22 19C22 19.7956 22.3161 20.5587 22.8787 21.1213C23.4413 21.6839 24.2044 22 25 22C25.7956 22 26.5587 21.6839 27.1213 21.1213C27.6839 20.5587 28 19.7956 28 19C28 18.2044 27.6839 17.4413 27.1213 16.8787C26.5587 16.3161 25.7956 16 25 16ZM25 26.5C29.005 26.5 37 28.495 37 32.5V37H13V32.5C13 28.495 20.995 26.5 25 26.5ZM25 29.35C20.545 29.35 15.85 31.54 15.85 32.5V34.15H34.15V32.5C34.15 31.54 29.455 29.35 25 29.35Z" fill="#676767"/>
</svg>
