<svg width="40" height="40" viewBox="0 0 40 40" fill="none" xmlns="http://www.w3.org/2000/svg">
<path d="M8.52667 33.3333C7.75889 33.3333 7.11833 33.0767 6.605 32.5633C6.09167 32.05 5.83445 31.4089 5.83333 30.64V5.83334C5.83333 5.59668 5.91333 5.3989 6.07333 5.24001C6.23333 5.08112 6.43167 5.00112 6.66833 5.00001C6.905 4.9989 7.10278 5.0789 7.26167 5.24001C7.42056 5.40112 7.5 5.5989 7.5 5.83334V30.6417C7.5 30.8972 7.60667 31.1322 7.82 31.3467C8.03333 31.5611 8.26833 31.6678 8.525 31.6667H33.3333C33.57 31.6667 33.7678 31.7467 33.9267 31.9067C34.0856 32.0667 34.1656 32.265 34.1667 32.5017C34.1678 32.7383 34.0878 32.9361 33.9267 33.095C33.7656 33.2539 33.5678 33.3333 33.3333 33.3333H8.52667ZM13.5267 27.5C13.1811 27.5 12.8917 27.3833 12.6583 27.15C12.425 26.9167 12.3083 26.6278 12.3083 26.2833V16.5367C12.3083 16.1922 12.425 15.9033 12.6583 15.67C12.8917 15.4367 13.1806 15.32 13.525 15.32H14.295C14.6761 15.32 14.9961 15.4495 15.255 15.7083C15.5128 15.9683 15.6417 16.2906 15.6417 16.675V26.1567C15.6417 26.5411 15.5122 26.8606 15.2533 27.115C14.9956 27.3706 14.6761 27.4983 14.295 27.4983L13.5267 27.5ZM21.0267 27.5C20.6811 27.5 20.3917 27.3833 20.1583 27.15C19.925 26.9167 19.8083 26.6278 19.8083 26.2833V8.33334C19.8083 7.95223 19.9372 7.63279 20.195 7.37501C20.4528 7.11723 20.7722 6.98779 21.1533 6.98668H21.9233C22.2678 6.98668 22.5567 7.10334 22.79 7.33668C23.0233 7.57001 23.14 7.85946 23.14 8.20501V26.155C23.14 26.5361 23.0117 26.8556 22.755 27.1133C22.4961 27.3711 22.1761 27.5 21.795 27.5H21.0267ZM28.5267 27.5C28.1811 27.5 27.8917 27.3833 27.6583 27.15C27.425 26.9167 27.3083 26.6278 27.3083 26.2833V23.3333C27.3083 22.9522 27.4372 22.6328 27.695 22.375C27.9528 22.1172 28.2722 21.9878 28.6533 21.9867H29.4233C29.7678 21.9867 30.0567 22.1033 30.29 22.3367C30.5233 22.57 30.64 22.8595 30.64 23.205V26.155C30.64 26.5361 30.5117 26.8556 30.255 27.1133C29.9983 27.3711 29.6783 27.5 29.295 27.5H28.5267Z" fill="#3A72EC"/>
</svg>
