<svg width="500" height="500" viewBox="0 0 500 500" fill="none" xmlns="http://www.w3.org/2000/svg">
<g clip-path="url(#clip0_18_51)">
<g opacity="0.5">
<g opacity="0.5">
<path d="M250.295 306.875C218.856 306.875 193.37 281.389 193.37 249.95C193.37 218.511 218.856 193.025 250.295 193.025C281.734 193.025 307.22 218.511 307.22 249.95C307.22 281.389 281.734 306.875 250.295 306.875Z" fill="#FAFAFA"/>
<path d="M250.295 306.875C218.856 306.875 193.37 281.389 193.37 249.95C193.37 218.511 218.856 193.025 250.295 193.025C281.734 193.025 307.22 218.511 307.22 249.95C307.22 281.389 281.734 306.875 250.295 306.875Z" stroke="#C9C9C9" stroke-width="2.418"/>
</g>
<path d="M168.686 249.446H331.905" stroke="url(#paint1_linear_18_51)" stroke-width="2.418"/>
<path d="M249.792 331.559V168.34" stroke="url(#paint2_linear_18_51)" stroke-width="2.418"/>
<path d="M331.549 331.915L168.448 168.815" stroke="url(#paint3_linear_18_51)" stroke-width="2.418"/>
<path d="M250.295 273.627C237.219 273.627 226.618 263.026 226.618 249.95C226.618 236.873 237.219 226.273 250.295 226.273C263.372 226.273 273.972 236.873 273.972 249.95C273.972 263.026 263.372 273.627 250.295 273.627Z" fill="white"/>
<mask id="mask0_18_51" style="mask-type:luminance" maskUnits="userSpaceOnUse" x="242" y="241" width="17" height="18">
<path d="M242.235 241.89H258.355V258.01H242.235V241.89Z" fill="white"/>
</mask>
<g mask="url(#mask0_18_51)">
<path fill-rule="evenodd" clip-rule="evenodd" d="M256.844 244.408H243.747V251.148L245.227 249.668L245.448 249.446H249.227L249.257 249.415L252.784 245.889H253.852L256.844 248.881V244.408ZM250.296 250.514L251.837 252.055L252.372 252.59L251.303 253.658L250.769 253.124L248.602 250.957H246.075L243.777 253.255L243.747 253.285V254.484C243.747 254.751 243.853 255.007 244.042 255.196C244.231 255.385 244.487 255.491 244.754 255.491H255.837C256.104 255.491 256.36 255.385 256.549 255.196C256.738 255.007 256.844 254.751 256.844 254.484V251.018L253.318 247.492L250.326 250.484L250.296 250.514ZM242.235 252.782V254.484C242.235 254.815 242.3 255.142 242.427 255.448C242.553 255.753 242.739 256.031 242.973 256.265C243.207 256.499 243.485 256.684 243.79 256.811C244.096 256.937 244.423 257.003 244.754 257.003H255.837C256.167 257.003 256.495 256.937 256.801 256.811C257.106 256.684 257.384 256.499 257.618 256.265C257.852 256.031 258.037 255.753 258.164 255.448C258.29 255.142 258.355 254.815 258.355 254.484V251.522L258.92 250.957L258.386 250.423L258.355 250.393V242.897H242.235V252.66L242.174 252.72L242.235 252.782Z" fill="#666666"/>
</g>
<path d="M250.295 273.627C237.219 273.627 226.618 263.026 226.618 249.95C226.618 236.873 237.219 226.273 250.295 226.273C263.372 226.273 273.972 236.873 273.972 249.95C273.972 263.026 263.372 273.627 250.295 273.627Z" stroke="#C9C9C9" stroke-width="2.418"/>
</g>
<path opacity="0.42" d="M79.02 70.71C155.56 20.23 265.23 26.99 334.99 86.52C351.39 100.51 365.69 116.99 383.26 129.49C398.52 140.33 416.04 148.01 429.96 160.53C458.59 186.27 467.07 228.37 463.31 266.68C456.8 333.09 416.81 395.36 359.09 428.88C291.27 468.3 204.38 466.61 132.31 435.65C113.79 427.7 95.86 417.83 80.98 404.25C27.67 355.64 37.88 286.93 14.83 225.53C-7.81999 164.9 26.65 105.22 79.02 70.72V70.71Z" fill="#F1F5F9"/>
<path d="M468.88 306L340.57 380.72C333.06 385.1 320.77 385.11 313.14 380.72L97.62 257.31C89.99 252.94 89.9 245.85 97.42 241.47L225.73 166.79C233.25 162.41 245.53 162.4 253.16 166.79L468.68 290.2C476.31 294.52 476.4 301.62 468.88 306Z" fill="#F1F5F9"/>
<path d="M474.8 298.02L346.5 372.7C338.98 377.08 326.69 377.09 319.07 372.7L103.55 249.29C95.92 244.92 95.83 237.83 103.35 233.45L231.68 158.76C239.2 154.38 251.49 154.37 259.11 158.76L474.63 282.17C482.24 286.57 482.33 293.64 474.8 298.02Z" fill="#F1F5F9"/>
<path d="M470.13 300.75L341.83 375.43C334.31 379.81 322.02 379.82 314.4 375.43L98.88 252.02C91.25 247.65 91.16 240.56 98.69 236.18L226.99 161.5C234.51 157.12 246.8 157.11 254.42 161.5L469.94 284.91C477.6 289.32 477.66 296.37 470.13 300.75Z" fill="#F1F5F9"/>
<path d="M217.37 167.3L461.25 305.13L418.01 330.36L175.67 190.97L217.37 167.3Z" fill="url(#paint4_linear_18_51)"/>
<path d="M397.62 342.63L338.83 376.85C331.35 379.75 321.08 379.27 314.39 375.45L98.87 252.04C91.25 247.68 91.15 240.59 98.67 236.21L157.46 202C164.93 199.1 175.21 199.58 181.9 203.4L397.42 326.8C405.04 331.17 405.14 338.26 397.62 342.63Z" fill="url(#paint5_linear_18_51)"/>
<path d="M259.04 217.49L231.43 233.54C227.26 235.97 220.46 235.97 216.22 233.54L182.4 214.17C178.17 211.75 178.12 207.77 182.29 205.38L209.9 189.31C214.07 186.89 220.87 186.88 225.11 189.31L258.93 208.68C263.16 211.13 263.21 215.06 259.04 217.48V217.49Z" fill="#F1F5F9"/>
<path d="M241.2 227.7L236.63 230.33L222.54 222.25C220.15 223.16 217.57 223.43 215.04 223.02L214.36 222.89L213.83 222.6C212.65 221.96 202.17 216.29 199.8 214.55C197.28 212.72 198.58 209.98 199.8 208.3L188.56 201.9L193.13 199.27L207.76 207.65L206.54 208.87C205.24 210.23 204.56 211.91 204.91 212.31C206.36 213.38 212.94 217.05 217.46 219.5C218.42 219.42 219.33 219.07 220.1 218.5L222.34 216.93L241.18 227.7H241.2Z" fill="url(#paint6_linear_18_51)"/>
<path d="M249.65 222.77L254.22 220.14L240.11 212.06C242.07 210.36 241.94 208.63 241.38 207.73L241.15 207.34L240.66 207.04C239.54 206.36 229.63 200.37 226.59 199C223.36 197.56 218.62 198.33 215.76 199L204.52 192.6L199.95 195.23L214.58 203.61L216.71 202.92C219.07 202.16 221.96 201.75 222.66 201.95C224.49 202.78 230.89 206.52 235.21 209.14C235.15 209.46 234.84 210.05 233.51 210.68L230.81 211.99L249.65 222.78V222.77Z" fill="url(#paint7_linear_18_51)"/>
<path d="M246.19 224.98L245.23 225.54L196.2 197.45L197.15 196.89L246.19 224.98Z" fill="url(#paint8_linear_18_51)"/>
<path d="M231.21 233.7L230.25 234.25L181.21 206.17L182.17 205.61L231.21 233.7Z" fill="url(#paint9_linear_18_51)"/>
<path d="M261.17 216.26L260.22 216.82L211.17 188.72L212.13 188.17L261.17 216.26Z" fill="url(#paint10_linear_18_51)"/>
<path d="M272.911 233.317L274.338 234.127C274.043 234.579 273.679 234.921 273.244 235.153C272.812 235.387 272.334 235.491 271.812 235.463C271.292 235.437 270.747 235.262 270.178 234.939C269.733 234.686 269.377 234.383 269.11 234.029C268.846 233.673 268.67 233.279 268.583 232.846C268.5 232.416 268.509 231.959 268.612 231.474C268.715 230.99 268.91 230.493 269.2 229.984L269.473 229.502C269.763 228.993 270.09 228.571 270.457 228.237C270.829 227.901 271.223 227.66 271.638 227.513C272.057 227.368 272.488 227.318 272.929 227.363C273.371 227.407 273.81 227.554 274.245 227.801C274.824 228.13 275.253 228.512 275.531 228.948C275.813 229.386 275.959 229.852 275.969 230.345C275.982 230.841 275.877 231.337 275.654 231.833L274.222 231.02C274.365 230.731 274.444 230.462 274.459 230.214C274.476 229.962 274.415 229.732 274.277 229.523C274.144 229.313 273.918 229.118 273.6 228.937C273.362 228.801 273.128 228.727 272.899 228.715C272.671 228.703 272.444 228.753 272.22 228.866C271.997 228.979 271.776 229.156 271.558 229.399C271.345 229.64 271.134 229.945 270.925 230.314L270.645 230.805C270.441 231.165 270.288 231.497 270.187 231.801C270.088 232.102 270.04 232.378 270.045 232.629C270.055 232.879 270.121 233.102 270.245 233.298C270.374 233.494 270.566 233.663 270.82 233.808C271.12 233.978 271.393 234.07 271.641 234.085C271.89 234.1 272.118 234.042 272.326 233.912C272.538 233.784 272.733 233.586 272.911 233.317ZM277.915 230.018L280.506 231.49C281.037 231.792 281.449 232.131 281.74 232.507C282.035 232.885 282.197 233.288 282.226 233.717C282.256 234.146 282.142 234.589 281.883 235.043C281.672 235.416 281.427 235.699 281.148 235.894C280.874 236.088 280.571 236.208 280.241 236.256C279.916 236.303 279.571 236.292 279.206 236.224L278.617 236.205L276.365 234.925L276.99 233.803L278.664 234.755C278.916 234.898 279.149 234.971 279.365 234.976C279.581 234.981 279.776 234.928 279.949 234.816C280.125 234.705 280.273 234.545 280.392 234.335C280.519 234.113 280.587 233.897 280.596 233.687C280.606 233.478 280.55 233.283 280.431 233.101C280.311 232.919 280.124 232.756 279.869 232.612L278.71 231.953L275.4 237.779L273.968 236.966L277.915 230.018ZM277.853 239.172L278.028 235.176L279.546 236.025L279.422 239.976L279.384 240.043L277.853 239.172ZM285.525 242.054L284.891 243.171L281.193 241.07L281.827 239.953L285.525 242.054ZM285.607 234.388L281.66 241.336L280.229 240.522L284.176 233.575L285.607 234.388ZM286.748 238.779L286.13 239.867L282.914 238.04L283.532 236.952L286.748 238.779ZM288.833 236.22L288.196 237.342L284.502 235.244L285.139 234.122L288.833 236.22ZM287.859 244.857L286.346 243.997L286.99 242.886L288.493 243.74C288.868 243.953 289.233 244.049 289.586 244.027C289.941 244.001 290.277 243.862 290.594 243.608C290.914 243.356 291.205 242.998 291.469 242.534L291.662 242.195C291.864 241.839 292.004 241.504 292.081 241.19C292.162 240.878 292.181 240.588 292.14 240.321C292.098 240.053 291.997 239.813 291.836 239.599C291.677 239.383 291.46 239.196 291.183 239.039L289.627 238.155L290.264 237.034L291.82 237.917C292.284 238.181 292.664 238.502 292.958 238.88C293.258 239.256 293.466 239.671 293.583 240.124C293.7 240.578 293.719 241.052 293.64 241.546C293.567 242.038 293.389 242.532 293.107 243.029L292.92 243.358C292.64 243.851 292.306 244.257 291.919 244.576C291.535 244.896 291.118 245.122 290.669 245.254C290.225 245.384 289.762 245.418 289.28 245.355C288.803 245.29 288.33 245.124 287.859 244.857ZM291.104 237.511L287.157 244.458L285.726 243.645L289.673 236.698L291.104 237.511ZM297.55 241.173L293.604 248.12L292.177 247.31L296.124 240.362L297.55 241.173ZM302.517 243.372L298.303 250.79L296.78 249.925L300.994 242.507L302.517 243.372ZM304.8 244.669L304.119 245.866L298.067 242.428L298.747 241.23L304.8 244.669ZM309.478 253.883L311.001 254.749C310.687 255.231 310.298 255.596 309.833 255.844C309.372 256.094 308.862 256.204 308.304 256.175C307.749 256.147 307.168 255.961 306.56 255.615C306.084 255.345 305.704 255.021 305.42 254.644C305.138 254.264 304.95 253.843 304.857 253.381C304.768 252.922 304.778 252.433 304.888 251.916C304.997 251.399 305.207 250.868 305.515 250.325L305.808 249.81C306.116 249.267 306.466 248.817 306.858 248.459C307.255 248.101 307.675 247.843 308.119 247.687C308.566 247.532 309.026 247.478 309.497 247.526C309.969 247.574 310.437 247.73 310.903 247.994C311.521 248.345 311.979 248.754 312.276 249.219C312.576 249.686 312.732 250.183 312.742 250.711C312.756 251.24 312.644 251.769 312.406 252.299L310.878 251.43C311.031 251.122 311.115 250.835 311.131 250.57C311.149 250.302 311.084 250.056 310.936 249.833C310.794 249.608 310.554 249.4 310.214 249.207C309.959 249.062 309.71 248.983 309.465 248.97C309.221 248.957 308.98 249.011 308.741 249.131C308.501 249.252 308.266 249.441 308.033 249.7C307.806 249.957 307.581 250.283 307.357 250.677L307.059 251.202C306.841 251.586 306.678 251.94 306.57 252.265C306.463 252.586 306.413 252.881 306.418 253.149C306.428 253.415 306.499 253.654 306.632 253.864C306.769 254.072 306.974 254.253 307.246 254.408C307.565 254.589 307.857 254.688 308.122 254.704C308.387 254.719 308.631 254.658 308.854 254.519C309.08 254.383 309.288 254.171 309.478 253.883ZM317.116 253.344L311.605 258.347L309.98 257.423L316.95 251.571L317.985 252.159L317.116 253.344ZM315.299 260.445L316.77 253.147L317.327 251.786L318.372 252.379L316.929 261.371L315.299 260.445ZM316.776 257.632L316.096 258.829L312.178 256.603L312.858 255.406L316.776 257.632ZM321.831 254.344L324.598 255.916C325.165 256.238 325.604 256.6 325.915 257.001C326.23 257.404 326.403 257.835 326.434 258.293C326.466 258.752 326.344 259.224 326.068 259.709C325.842 260.107 325.58 260.409 325.282 260.617C324.99 260.824 324.667 260.953 324.315 261.004C323.967 261.054 323.599 261.043 323.209 260.969L322.58 260.949L320.176 259.583L320.843 258.385L322.631 259.401C322.899 259.553 323.149 259.632 323.379 259.638C323.61 259.643 323.818 259.586 324.003 259.466C324.191 259.348 324.349 259.177 324.476 258.953C324.611 258.715 324.684 258.485 324.694 258.261C324.704 258.038 324.645 257.829 324.517 257.635C324.389 257.441 324.189 257.267 323.917 257.113L322.679 256.41L319.146 262.63L317.617 261.762L321.831 254.344ZM321.764 264.118L321.951 259.85L323.572 260.758L323.44 264.975L323.4 265.047L321.764 264.118ZM326.579 266.853L324.964 265.935L325.651 264.749L327.256 265.661C327.657 265.888 328.046 265.99 328.423 265.967C328.803 265.939 329.161 265.79 329.499 265.52C329.841 265.251 330.152 264.869 330.434 264.373L330.639 264.011C330.855 263.631 331.005 263.273 331.087 262.938C331.173 262.605 331.194 262.295 331.15 262.01C331.105 261.724 330.997 261.467 330.826 261.239C330.656 261.008 330.423 260.809 330.128 260.641L328.467 259.697L329.147 258.5L330.808 259.444C331.304 259.725 331.709 260.068 332.024 260.471C332.343 260.873 332.566 261.316 332.691 261.8C332.815 262.284 332.836 262.79 332.752 263.317C332.673 263.843 332.483 264.371 332.182 264.901L331.983 265.253C331.684 265.779 331.327 266.212 330.914 266.553C330.504 266.895 330.059 267.136 329.579 267.277C329.105 267.416 328.61 267.452 328.096 267.385C327.587 267.316 327.081 267.138 326.579 266.853ZM330.044 259.009L325.83 266.427L324.301 265.559L328.515 258.141L330.044 259.009Z" fill="#F1F5F9"/>
<path d="M227.02 296.25L121.79 235.49C119.46 234.15 119.75 231.83 122.44 230.23C125.13 228.68 129.2 228.51 131.54 229.86L236.77 290.62C239.1 291.96 238.81 294.28 236.11 295.87C233.42 297.42 229.35 297.6 227.02 296.25Z" fill="#F1F5F9"/>
<path d="M384.63 301.19L256.36 375.86C248.84 380.24 236.55 380.25 228.93 375.86L13.42 252.45C5.8 248.08 5.7 240.99 13.23 236.61L141.53 161.93C149.05 157.55 161.34 157.54 168.96 161.93L384.48 285.34C392.08 289.71 392.17 296.8 384.64 301.19H384.63Z" fill="#F1F5F9"/>
<path d="M385.88 295.93L257.58 370.61C250.06 374.99 237.77 374.99 230.15 370.61L14.63 247.19C7.00001 242.82 6.91001 235.73 14.43 231.35L142.72 156.66C150.24 152.28 162.53 152.27 170.15 156.66L385.67 280.07C393.32 284.45 393.4 291.54 385.88 295.92V295.93Z" fill="#F1F5F9"/>
<path d="M385.89 295.92L257.58 370.6C256.62 371.16 255.62 371.63 254.59 372.03C247.11 374.93 236.83 374.45 230.14 370.63L14.62 247.21C7 242.84 6.9 235.76 14.43 231.38L73.21 197.17L142.73 156.7C150.25 152.32 162.53 152.31 170.16 156.7L385.68 280.11C393.32 284.45 393.41 291.54 385.9 295.92H385.89Z" fill="url(#paint11_linear_18_51)"/>
<path d="M313.37 337.81L254.59 372.03C247.11 374.93 236.83 374.45 230.14 370.63L14.62 247.21C7 242.84 6.9 235.76 14.43 231.38L73.21 197.17C80.69 194.27 90.96 194.75 97.65 198.57L313.17 321.98C320.79 326.34 320.89 333.43 313.37 337.8V337.81Z" fill="url(#paint12_linear_18_51)"/>
<path d="M174.79 212.68L147.19 228.75C143.02 231.17 136.22 231.18 131.97 228.75L98.15 209.38C93.92 206.95 93.86 202.98 98.04 200.59L125.65 184.53C129.83 182.1 136.62 182.1 140.87 184.53L174.69 203.9C178.91 206.31 178.97 210.25 174.79 212.68Z" fill="#F1F5F9"/>
<path d="M156.95 222.87L152.42 225.51L138.31 217.43C135.92 218.34 133.34 218.6 130.81 218.2L130.12 218.06L129.6 217.78C128.41 217.14 117.94 211.47 115.57 209.73C113.05 207.9 114.35 205.16 115.57 203.48L104.34 197.08L108.87 194.45L123.5 202.82L122.32 204.05C121.03 205.42 120.35 207.09 120.69 207.5C122.14 208.57 128.72 212.24 133.24 214.69C134.2 214.6 135.11 214.26 135.89 213.69L138.13 212.12L156.93 222.87H156.95Z" fill="url(#paint13_linear_18_51)"/>
<path d="M165.41 217.95L169.94 215.32L155.82 207.24C157.77 205.53 157.65 203.81 157.09 202.91L156.85 202.52L156.36 202.22C155.24 201.54 145.34 195.55 142.29 194.18C139.06 192.74 134.33 193.51 131.46 194.18L120.22 187.78L115.65 190.41L130.28 198.79L132.4 198.1C134.76 197.35 137.65 196.94 138.36 197.14C140.19 197.97 146.59 201.71 150.91 204.33C150.85 204.65 150.54 205.24 149.2 205.87L146.46 207.18L165.42 217.97L165.41 217.95Z" fill="url(#paint14_linear_18_51)"/>
<path d="M161.94 220.16L160.99 220.71L111.95 192.63L112.91 192.07L161.94 220.16Z" fill="url(#paint15_linear_18_51)"/>
<path d="M146.96 228.87L146.01 229.43L96.96 201.35L97.92 200.79L146.96 228.87Z" fill="url(#paint16_linear_18_51)"/>
<path d="M176.93 211.44L175.97 212L126.93 183.91L127.89 183.35L176.93 211.44Z" fill="url(#paint17_linear_18_51)"/>
<path d="M188.661 228.487L190.088 229.297C189.793 229.749 189.429 230.091 188.994 230.323C188.562 230.557 188.084 230.661 187.562 230.633C187.042 230.607 186.497 230.432 185.928 230.109C185.483 229.856 185.127 229.553 184.86 229.199C184.596 228.843 184.42 228.449 184.333 228.016C184.25 227.586 184.259 227.129 184.362 226.644C184.465 226.16 184.66 225.663 184.95 225.154L185.223 224.672C185.513 224.163 185.84 223.741 186.207 223.407C186.579 223.071 186.973 222.83 187.388 222.683C187.807 222.538 188.238 222.488 188.679 222.533C189.121 222.577 189.56 222.724 189.995 222.971C190.574 223.3 191.003 223.682 191.281 224.118C191.563 224.556 191.709 225.022 191.719 225.515C191.732 226.011 191.627 226.507 191.404 227.003L189.972 226.19C190.115 225.901 190.194 225.632 190.209 225.384C190.226 225.132 190.165 224.902 190.027 224.693C189.894 224.483 189.668 224.288 189.35 224.107C189.112 223.971 188.878 223.897 188.649 223.885C188.421 223.873 188.194 223.923 187.97 224.036C187.746 224.149 187.526 224.326 187.308 224.569C187.095 224.81 186.884 225.115 186.675 225.484L186.395 225.975C186.191 226.335 186.038 226.667 185.937 226.971C185.838 227.272 185.79 227.548 185.795 227.799C185.805 228.049 185.871 228.272 185.995 228.468C186.124 228.664 186.316 228.833 186.57 228.978C186.869 229.148 187.143 229.24 187.391 229.255C187.64 229.27 187.868 229.212 188.076 229.082C188.288 228.954 188.483 228.756 188.661 228.487ZM193.665 225.188L196.256 226.66C196.787 226.962 197.199 227.301 197.49 227.677C197.785 228.055 197.947 228.458 197.976 228.887C198.006 229.316 197.892 229.759 197.633 230.213C197.422 230.586 197.177 230.869 196.898 231.064C196.624 231.258 196.321 231.378 195.991 231.426C195.666 231.473 195.321 231.462 194.956 231.394L194.367 231.375L192.115 230.095L192.739 228.973L194.414 229.925C194.666 230.068 194.899 230.141 195.115 230.146C195.331 230.151 195.526 230.098 195.699 229.986C195.875 229.875 196.023 229.715 196.142 229.505C196.269 229.283 196.337 229.067 196.346 228.857C196.356 228.648 196.3 228.453 196.181 228.271C196.061 228.089 195.874 227.926 195.619 227.782L194.46 227.123L191.15 232.949L189.718 232.136L193.665 225.188ZM193.603 234.342L193.778 230.346L195.296 231.195L195.172 235.146L195.134 235.213L193.603 234.342ZM201.275 237.224L200.641 238.341L196.943 236.24L197.577 235.123L201.275 237.224ZM201.357 229.558L197.41 236.506L195.979 235.692L199.926 228.745L201.357 229.558ZM202.498 233.949L201.88 235.037L198.664 233.21L199.282 232.122L202.498 233.949ZM204.583 231.39L203.946 232.512L200.252 230.414L200.889 229.292L204.583 231.39ZM203.609 240.027L202.096 239.167L202.74 238.056L204.243 238.91C204.618 239.123 204.983 239.219 205.336 239.197C205.691 239.171 206.027 239.032 206.344 238.778C206.664 238.526 206.955 238.168 207.219 237.704L207.412 237.365C207.614 237.009 207.754 236.674 207.831 236.36C207.912 236.048 207.931 235.758 207.89 235.491C207.848 235.223 207.747 234.983 207.586 234.769C207.427 234.553 207.209 234.366 206.933 234.209L205.377 233.325L206.014 232.204L207.57 233.087C208.034 233.351 208.414 233.672 208.708 234.05C209.008 234.426 209.216 234.841 209.333 235.294C209.45 235.748 209.469 236.222 209.39 236.716C209.317 237.208 209.139 237.702 208.857 238.199L208.67 238.528C208.39 239.021 208.056 239.427 207.669 239.746C207.285 240.066 206.868 240.292 206.419 240.424C205.974 240.554 205.511 240.588 205.03 240.525C204.553 240.46 204.079 240.294 203.609 240.027ZM206.854 232.681L202.907 239.628L201.476 238.815L205.422 231.868L206.854 232.681ZM213.3 236.343L209.354 243.29L207.927 242.48L211.874 235.532L213.3 236.343ZM218.267 238.542L214.053 245.96L212.53 245.095L216.744 237.677L218.267 238.542ZM220.55 239.839L219.869 241.036L213.817 237.598L214.497 236.4L220.55 239.839ZM225.228 249.053L226.751 249.919C226.437 250.401 226.048 250.766 225.583 251.014C225.122 251.264 224.612 251.374 224.054 251.345C223.499 251.317 222.918 251.131 222.31 250.785C221.834 250.515 221.454 250.191 221.17 249.814C220.888 249.434 220.7 249.013 220.607 248.551C220.518 248.092 220.528 247.603 220.638 247.086C220.747 246.569 220.956 246.038 221.265 245.495L221.558 244.98C221.866 244.437 222.216 243.987 222.608 243.629C223.005 243.271 223.425 243.013 223.869 242.857C224.316 242.702 224.776 242.648 225.247 242.696C225.719 242.744 226.187 242.9 226.653 243.164C227.271 243.515 227.729 243.924 228.026 244.389C228.326 244.856 228.482 245.353 228.492 245.881C228.506 246.41 228.394 246.939 228.156 247.469L226.628 246.6C226.781 246.292 226.865 246.005 226.881 245.74C226.899 245.472 226.834 245.226 226.686 245.003C226.544 244.778 226.303 244.57 225.964 244.377C225.709 244.232 225.46 244.153 225.215 244.14C224.971 244.127 224.73 244.181 224.49 244.301C224.251 244.422 224.016 244.611 223.783 244.87C223.556 245.127 223.331 245.453 223.107 245.847L222.809 246.372C222.591 246.756 222.428 247.11 222.32 247.435C222.213 247.756 222.163 248.051 222.168 248.319C222.178 248.585 222.249 248.824 222.382 249.034C222.519 249.242 222.724 249.423 222.996 249.578C223.315 249.759 223.607 249.858 223.872 249.874C224.137 249.889 224.381 249.828 224.604 249.689C224.83 249.553 225.038 249.341 225.228 249.053ZM232.866 248.514L227.355 253.517L225.73 252.593L232.7 246.741L233.735 247.329L232.866 248.514ZM231.049 255.615L232.52 248.317L233.077 246.956L234.122 247.549L232.679 256.541L231.049 255.615ZM232.526 252.802L231.846 253.999L227.928 251.773L228.608 250.576L232.526 252.802ZM237.581 249.514L240.348 251.086C240.915 251.408 241.354 251.77 241.665 252.171C241.98 252.574 242.153 253.005 242.184 253.463C242.216 253.922 242.094 254.394 241.818 254.879C241.592 255.277 241.33 255.579 241.032 255.787C240.74 255.994 240.417 256.123 240.065 256.174C239.717 256.224 239.349 256.213 238.959 256.139L238.33 256.119L235.926 254.753L236.593 253.555L238.381 254.571C238.649 254.723 238.899 254.802 239.129 254.808C239.36 254.813 239.568 254.756 239.753 254.636C239.941 254.518 240.099 254.347 240.226 254.123C240.361 253.885 240.434 253.655 240.444 253.431C240.454 253.208 240.395 252.999 240.267 252.805C240.139 252.611 239.939 252.437 239.667 252.283L238.429 251.58L234.896 257.8L233.367 256.932L237.581 249.514ZM237.514 259.288L237.701 255.02L239.322 255.928L239.19 260.145L239.15 260.217L237.514 259.288ZM242.329 262.023L240.714 261.105L241.401 259.919L243.006 260.831C243.407 261.058 243.796 261.16 244.173 261.137C244.553 261.109 244.911 260.96 245.249 260.69C245.591 260.421 245.902 260.039 246.184 259.543L246.389 259.181C246.605 258.801 246.755 258.443 246.837 258.108C246.923 257.775 246.944 257.465 246.9 257.18C246.855 256.894 246.747 256.637 246.576 256.409C246.406 256.178 246.173 255.979 245.878 255.811L244.217 254.867L244.897 253.67L246.558 254.614C247.054 254.895 247.459 255.238 247.774 255.641C248.093 256.043 248.316 256.486 248.44 256.97C248.565 257.454 248.586 257.96 248.502 258.487C248.423 259.013 248.233 259.541 247.932 260.071L247.733 260.423C247.434 260.949 247.077 261.382 246.664 261.723C246.254 262.065 245.809 262.306 245.329 262.447C244.855 262.586 244.36 262.622 243.846 262.555C243.337 262.486 242.831 262.308 242.329 262.023ZM245.794 254.179L241.58 261.597L240.051 260.729L244.265 253.311L245.794 254.179Z" fill="#F1F5F9"/>
<path d="M265.73 342.97L54.38 220.95C52.05 219.61 52.34 217.29 55.03 215.7C57.72 214.15 61.79 213.98 64.13 215.33L275.48 337.35C277.81 338.69 277.52 341.01 274.82 342.6C272.13 344.16 268.06 344.32 265.73 342.97Z" fill="#F1F5F9"/>
<path d="M142.77 291.43L37.54 230.67C35.21 229.32 35.5 226.97 38.19 225.41C40.89 223.86 44.95 223.69 47.29 225.04L152.52 285.8C154.85 287.14 154.56 289.46 151.87 291.05C149.17 292.6 145.11 292.78 142.77 291.43Z" fill="#F1F5F9"/>
<path d="M249.88 353.3L173.67 309.31C171.34 307.96 171.63 305.61 174.33 304.05C177.02 302.5 181.09 302.33 183.43 303.68L259.64 347.68C261.97 349.02 261.68 351.34 258.98 352.93C256.29 354.44 252.22 354.61 249.89 353.3H249.88Z" fill="#F1F5F9"/>
</g>
<defs>
<linearGradient id="paint0_linear_18_51" x1="-nan" y1="-nan" x2="-nan" y2="-nan" gradientUnits="userSpaceOnUse">
<stop stop-color="#C9C9C9" stop-opacity="0"/>
<stop offset="0.208" stop-color="#C9C9C9"/>
<stop offset="0.792" stop-color="#C9C9C9"/>
<stop offset="1" stop-color="#C9C9C9" stop-opacity="0"/>
</linearGradient>
<linearGradient id="paint1_linear_18_51" x1="-nan" y1="-nan" x2="-nan" y2="-nan" gradientUnits="userSpaceOnUse">
<stop stop-color="#C9C9C9" stop-opacity="0"/>
<stop offset="0.208" stop-color="#C9C9C9"/>
<stop offset="0.792" stop-color="#C9C9C9"/>
<stop offset="1" stop-color="#C9C9C9" stop-opacity="0"/>
</linearGradient>
<linearGradient id="paint2_linear_18_51" x1="-nan" y1="-nan" x2="-nan" y2="-nan" gradientUnits="userSpaceOnUse">
<stop stop-color="#C9C9C9" stop-opacity="0"/>
<stop offset="0.208" stop-color="#C9C9C9"/>
<stop offset="0.792" stop-color="#C9C9C9"/>
<stop offset="1" stop-color="#C9C9C9" stop-opacity="0"/>
</linearGradient>
<linearGradient id="paint4_linear_18_51" x1="390.83" y1="167.86" x2="95.34" y2="495.27" gradientUnits="userSpaceOnUse">
<stop stop-color="#231F20" stop-opacity="0"/>
<stop offset="1" stop-color="#231F20"/>
</linearGradient>
<linearGradient id="paint5_linear_18_51" x1="1719.11" y1="-189.739" x2="1995.93" y2="-475.479" gradientUnits="userSpaceOnUse">
<stop stop-color="#231F20" stop-opacity="0"/>
<stop offset="1" stop-color="#231F20"/>
</linearGradient>
<linearGradient id="paint6_linear_18_51" x1="194.42" y1="22.95" x2="202.24" y2="96.25" gradientUnits="userSpaceOnUse">
<stop stop-color="#231F20" stop-opacity="0"/>
<stop offset="1" stop-color="#231F20"/>
</linearGradient>
<linearGradient id="paint7_linear_18_51" x1="207.23" y1="21.58" x2="215.05" y2="94.88" gradientUnits="userSpaceOnUse">
<stop stop-color="#231F20" stop-opacity="0"/>
<stop offset="1" stop-color="#231F20"/>
</linearGradient>
<linearGradient id="paint8_linear_18_51" x1="201.04" y1="22.24" x2="208.86" y2="95.55" gradientUnits="userSpaceOnUse">
<stop stop-color="#231F20" stop-opacity="0"/>
<stop offset="1" stop-color="#231F20"/>
</linearGradient>
<linearGradient id="paint9_linear_18_51" x1="185.3" y1="23.92" x2="193.12" y2="97.22" gradientUnits="userSpaceOnUse">
<stop stop-color="#231F20" stop-opacity="0"/>
<stop offset="1" stop-color="#231F20"/>
</linearGradient>
<linearGradient id="paint10_linear_18_51" x1="216.76" y1="20.5699" x2="224.58" y2="93.87" gradientUnits="userSpaceOnUse">
<stop stop-color="#231F20" stop-opacity="0"/>
<stop offset="1" stop-color="#231F20"/>
</linearGradient>
<linearGradient id="paint11_linear_18_51" x1="226.13" y1="178.43" x2="121.55" y2="521.49" gradientUnits="userSpaceOnUse">
<stop stop-color="#231F20" stop-opacity="0"/>
<stop offset="1" stop-color="#231F20"/>
</linearGradient>
<linearGradient id="paint12_linear_18_51" x1="105.53" y1="343.69" x2="519.93" y2="-75.92" gradientUnits="userSpaceOnUse">
<stop stop-color="#231F20" stop-opacity="0"/>
<stop offset="1" stop-color="#231F20"/>
</linearGradient>
<linearGradient id="paint13_linear_18_51" x1="132.32" y1="158.59" x2="125.81" y2="359.27" gradientUnits="userSpaceOnUse">
<stop stop-color="#231F20" stop-opacity="0"/>
<stop offset="1" stop-color="#231F20"/>
</linearGradient>
<linearGradient id="paint14_linear_18_51" x1="144.21" y1="158.97" x2="137.7" y2="359.66" gradientUnits="userSpaceOnUse">
<stop stop-color="#231F20" stop-opacity="0"/>
<stop offset="1" stop-color="#231F20"/>
</linearGradient>
<linearGradient id="paint15_linear_18_51" x1="138.49" y1="158.79" x2="131.98" y2="359.47" gradientUnits="userSpaceOnUse">
<stop stop-color="#231F20" stop-opacity="0"/>
<stop offset="1" stop-color="#231F20"/>
</linearGradient>
<linearGradient id="paint16_linear_18_51" x1="123.81" y1="158.31" x2="117.29" y2="359" gradientUnits="userSpaceOnUse">
<stop stop-color="#231F20" stop-opacity="0"/>
<stop offset="1" stop-color="#231F20"/>
</linearGradient>
<linearGradient id="paint17_linear_18_51" x1="153.18" y1="159.26" x2="146.66" y2="359.95" gradientUnits="userSpaceOnUse">
<stop stop-color="#231F20" stop-opacity="0"/>
<stop offset="1" stop-color="#231F20"/>
</linearGradient>
<clipPath id="clip0_18_51">
<rect width="500" height="500" rx="10" fill="white"/>
</clipPath>
</defs>
</svg>
