<svg width="40" height="40" viewBox="0 0 40 40" fill="none" xmlns="http://www.w3.org/2000/svg">
<path d="M33.75 10.3125H8.75C8.3356 10.3125 7.93817 10.1479 7.64515 9.85485C7.35212 9.56183 7.1875 9.1644 7.1875 8.75C7.1875 8.3356 7.35212 7.93817 7.64515 7.64515C7.93817 7.35212 8.3356 7.1875 8.75 7.1875H30C30.2486 7.1875 30.4871 7.08873 30.6629 6.91291C30.8387 6.7371 30.9375 6.49864 30.9375 6.25C30.9375 6.00136 30.8387 5.7629 30.6629 5.58709C30.4871 5.41127 30.2486 5.3125 30 5.3125H8.75C7.83832 5.3125 6.96398 5.67466 6.31932 6.31932C5.67466 6.96398 5.3125 7.83832 5.3125 8.75V28.75C5.3125 29.6617 5.67466 30.536 6.31932 31.1807C6.96398 31.8253 7.83832 32.1875 8.75 32.1875H33.75C34.3302 32.1875 34.8866 31.957 35.2968 31.5468C35.707 31.1366 35.9375 30.5802 35.9375 30V12.5C35.9375 11.9198 35.707 11.3634 35.2968 10.9532C34.8866 10.543 34.3302 10.3125 33.75 10.3125ZM34.0625 30C34.0625 30.0829 34.0296 30.1624 33.971 30.221C33.9124 30.2796 33.8329 30.3125 33.75 30.3125H8.75C8.3356 30.3125 7.93817 30.1479 7.64515 29.8549C7.35212 29.5618 7.1875 29.1644 7.1875 28.75V11.8109C7.67092 12.0591 8.20661 12.1882 8.75 12.1875H33.75C33.8329 12.1875 33.9124 12.2204 33.971 12.279C34.0296 12.3376 34.0625 12.4171 34.0625 12.5V30ZM29.6875 20.625C29.6875 20.934 29.5959 21.2361 29.4242 21.4931C29.2525 21.75 29.0085 21.9503 28.7229 22.0686C28.4374 22.1868 28.1233 22.2178 27.8202 22.1575C27.5171 22.0972 27.2387 21.9484 27.0201 21.7299C26.8016 21.5113 26.6528 21.2329 26.5925 20.9298C26.5322 20.6267 26.5632 20.3126 26.6814 20.0271C26.7997 19.7415 27 19.4975 27.2569 19.3258C27.5139 19.1541 27.816 19.0625 28.125 19.0625C28.5394 19.0625 28.9368 19.2271 29.2299 19.5201C29.5229 19.8132 29.6875 20.2106 29.6875 20.625Z" fill="#3A72EC"/>
</svg>
